<svg width="24" height="25" viewBox="0 0 24 25" fill="none" xmlns="http://www.w3.org/2000/svg">
<path d="M17.1499 12.084H17.1498C16.0372 12.0825 14.9702 11.6399 14.1834 10.853C14.1834 10.853 14.1834 10.853 14.1834 10.853M17.1499 12.084L13.0276 7.88631C13.0289 8.97923 13.4636 10.0271 14.2365 10.8L14.1834 10.853M17.1499 12.084C18.2634 12.0842 19.3312 11.642 20.1186 10.8549M17.1499 12.084L20.1186 10.8549M14.1834 10.853C13.3965 10.0661 12.9539 8.99917 12.9526 7.8864L12.9526 7.88631C12.9526 6.7731 13.3948 5.70537 14.1822 4.91821M14.1834 10.853L14.1822 4.91821M14.1822 4.91821C14.9694 4.13086 16.0372 3.68867 17.1505 3.68867M14.1822 4.91821L17.1505 3.68867M20.1186 10.8549C20.906 10.0677 21.3482 8.99997 21.3484 7.88675M20.1186 10.8549L21.3484 7.88675M21.3484 7.88675C21.3484 6.7733 20.9062 5.70557 20.119 4.91842M21.3484 7.88675L20.119 4.91842M20.119 4.91842C19.3318 4.13107 18.264 3.68867 17.1505 3.68867M20.119 4.91842L17.1505 3.68867M19.0348 9.77057L19.0348 9.77058C18.5351 10.2704 17.8574 10.5511 17.1505 10.5511H17.1504C16.4438 10.5513 15.7661 10.2704 15.2661 9.77073C14.7665 9.27108 14.4858 8.59325 14.4857 7.88661C14.4865 7.18033 14.7674 6.50307 15.2669 6.00359C15.7664 5.5041 16.4437 5.22304 17.15 5.22202C17.8569 5.22205 18.5345 5.50252 19.0344 6.00218C19.5343 6.50185 19.815 7.1797 19.8152 7.88639C19.8152 8.59304 19.5345 9.2709 19.0348 9.77057ZM20.5818 13.4431H13.7195C13.296 13.4431 12.9529 13.7862 12.9529 14.2096V21.0716C12.9529 21.4948 13.296 21.8382 13.7195 21.8382H20.5818C21.0051 21.8382 21.3484 21.4948 21.3484 21.0716V14.2096C21.3484 13.7862 21.0051 13.4431 20.5818 13.4431ZM19.8152 20.305H14.4861V14.9762H19.8152V20.305ZM10.8274 3.68894H3.96505C3.5418 3.68894 3.19844 4.03227 3.19844 4.4555V11.3174C3.19844 11.7409 3.54182 12.084 3.96505 12.084H10.8274C11.2508 12.084 11.594 11.7409 11.594 11.3174V4.4555C11.594 4.03229 11.2508 3.68894 10.8274 3.68894ZM10.0608 10.5509H4.73165V5.22207H10.0608V10.5509ZM10.8274 13.4425L3.96504 13.4427C3.54182 13.4427 3.19844 13.7858 3.19844 14.2093V21.0712C3.19844 21.4944 3.5418 21.8378 3.96505 21.8378H10.8274C11.2508 21.8378 11.594 21.4944 11.594 21.0712V14.2093C11.594 13.7859 11.2509 13.4425 10.8274 13.4425ZM10.0608 20.3044L4.73165 20.3046V14.9758H10.0608V20.3044Z" fill="white" stroke="white" stroke-width="0.15"/>
</svg>
