<svg width="24" height="24" viewBox="0 0 24 24" fill="none" xmlns="http://www.w3.org/2000/svg">
<path fill-rule="evenodd" clip-rule="evenodd" d="M11.7744 3.54244C7.20643 3.54244 3.50376 7.34054 3.50376 12.0258C3.50376 16.7113 7.2066 20.5093 11.7744 20.5093C16.342 20.5093 20.0451 16.7112 20.0451 12.0258C20.0451 7.3408 16.3421 3.54244 11.7744 3.54244ZM2 12.0258C2 6.48893 6.37636 2 11.7744 2C17.1725 2 21.5488 6.48849 21.5488 12.0258C21.5488 17.5632 17.1725 22.0517 11.7744 22.0517C6.37636 22.0517 2 17.5632 2 12.0258Z" fill="white"/>
<path fill-rule="evenodd" clip-rule="evenodd" d="M9.26881 7.7888C9.26881 7.36273 9.60531 7.01758 10.0207 7.01758H12.5269C14.161 7.01758 15.785 8.13188 15.785 9.84526C15.785 11.5588 14.161 12.6731 12.5269 12.6731H10.7726V13.7014H13.7801C14.1953 13.7014 14.532 14.0467 14.532 14.4726C14.532 14.8985 14.1953 15.2438 13.7801 15.2438H10.7726V16.5292C10.7726 16.9551 10.4359 17.3004 10.0207 17.3004C9.60531 17.3004 9.26881 16.9551 9.26881 16.5292V15.2438H8.7675C8.35229 15.2438 8.01562 14.8985 8.01562 14.4726C8.01562 14.0467 8.35229 13.7014 8.7675 13.7014H9.26881V12.6731H8.7675C8.35229 12.6731 8.01562 12.3278 8.01562 11.9019C8.01562 11.476 8.35229 11.1307 8.7675 11.1307H9.26881V7.7888ZM10.7726 11.1307H12.5269C13.6611 11.1307 14.2812 10.4035 14.2812 9.84526C14.2812 9.28716 13.6611 8.56002 12.5269 8.56002H10.7726V11.1307Z" fill="white"/>
</svg>
