<svg width="25" height="25" viewBox="0 0 25 25" fill="none" xmlns="http://www.w3.org/2000/svg">
<path d="M19.9989 5.88601C19.0823 4.99223 17.8788 4.5 16.6101 4.5C14.9262 4.5 13.3859 5.3875 12.5 6.79284C11.6141 5.3875 10.0737 4.5 8.38991 4.5C7.07963 4.5 5.84995 5.0228 4.92749 5.97207C4.01598 6.91008 3.50907 8.15762 3.50009 9.48493C3.48649 11.4999 4.95986 13.9589 7.87925 16.7937C10.0066 18.8593 12.1027 20.3407 12.1909 20.4027C12.2807 20.466 12.389 20.5 12.5 20.5C12.609 20.5 12.7181 20.4672 12.8106 20.4017C12.8981 20.3396 14.9791 18.8584 17.0985 16.793C20.0055 13.9601 21.4863 11.5036 21.4999 9.49159C21.5091 8.1194 20.9761 6.83891 19.9989 5.88601ZM16.3618 16.0653C14.7682 17.6196 13.1576 18.8618 12.4989 19.3524C11.8367 18.8625 10.2149 17.6198 8.61452 16.0646C5.94537 13.4707 4.54062 11.1978 4.55213 9.49159C4.55931 8.42247 4.9647 7.42069 5.69348 6.67068C6.41507 5.92814 7.3727 5.51918 8.38994 5.51918C10.0056 5.51918 11.4569 6.57912 12.0011 8.15667C12.0361 8.25806 12.1031 8.34623 12.1926 8.4087C12.2822 8.47117 12.3897 8.50478 12.5001 8.50478C12.6104 8.50478 12.7179 8.47117 12.8075 8.4087C12.897 8.34623 12.964 8.25806 12.999 8.15667C13.5433 6.57912 14.9945 5.51918 16.6102 5.51918C17.5966 5.51918 18.535 5.90456 19.2526 6.6043C20.0309 7.36318 20.4554 8.38619 20.4479 9.4849C20.4363 11.194 19.0234 13.4694 16.3618 16.0653Z" fill="black" stroke="black" stroke-width="0.5"/>
<path d="M18.0176 7.43641C17.425 7.00005 16.7156 6.81921 16.0198 6.92716C15.7327 6.9717 15.5361 7.24054 15.5807 7.52761C15.6252 7.81468 15.894 8.0113 16.1811 7.96676C16.5979 7.90209 17.0286 8.01458 17.3938 8.28354C17.8283 8.60347 18.1136 9.08995 18.1972 9.65333C18.2399 9.94068 18.5074 10.1391 18.7948 10.0964L18.7983 10.0959C19.0838 10.0516 19.2804 9.78507 19.2379 9.49885C19.1128 8.65617 18.6794 7.92374 18.0176 7.43641Z" fill="black" stroke="black" stroke-width="0.5"/>
</svg>
