<svg width="24" height="25" viewBox="0 0 24 25" fill="none" xmlns="http://www.w3.org/2000/svg">
<path d="M12.0025 2.0002L11.9299 2.0009C9.25789 2.01903 6.75385 3.07738 4.87901 4.97874C3.00359 6.881 1.98058 9.39904 2.00028 12.0703C2.03971 17.5453 6.52513 22 12 22H12.0726C14.7439 21.9819 17.2473 20.9235 19.1217 19.0213C20.9964 17.119 22.0201 14.601 21.9997 11.9288C21.961 6.45428 17.4775 2 12.0022 2L12.0025 2.0002ZM12.0641 20.8398H12.0002C7.15986 20.8398 3.1943 16.903 3.1596 12.0624C3.15889 11.9797 3.1691 11.8984 3.17069 11.8156C3.47754 12.3803 3.89863 12.6713 4.43648 12.9063C5.31513 13.2896 5.78361 13.0049 5.90417 15.7699C6.0304 18.6784 9.14011 18.7194 8.8026 17.6627C8.52884 16.8047 8.49575 15.6186 9.36735 14.8347C10.2381 14.0492 9.88793 12.6722 8.32163 11.613C6.75691 10.5531 7.01005 8.10038 7.66868 7.91746C8.22622 7.76202 10.2809 8.89533 9.72158 6.88519C9.30752 5.39536 7.36253 5.33709 6.47933 5.1028C7.62222 4.18405 8.96056 3.57444 10.3952 3.3118C10.5348 3.48291 10.7746 3.64698 11.1886 3.72901C12.2613 3.94202 12.8086 4.47507 13.1998 4.9127C13.5649 5.3197 16.3648 7.78739 17.8287 5.36548C18.9581 6.35832 19.8329 7.63353 20.343 9.07847C19.7089 8.95701 18.7783 8.87181 18.2388 9.26137C17.368 9.89229 17.2765 10.8663 16.013 11.1684C14.7495 11.4689 11.7855 12.2693 12.0126 13.5327C12.2413 14.7977 11.9535 15.3845 13.4148 15.5674C14.8771 15.7518 15.945 15.3543 16.0499 16.3284C16.1549 17.3024 14.3597 17.4112 14.5838 18.3827C14.7629 19.1666 16.0137 19.3087 17.6305 18.8172C16.0651 20.113 14.121 20.8259 12.0641 20.84L12.0641 20.8398Z" fill="white"/>
</svg>
