<svg width="24" height="25" viewBox="0 0 24 25" fill="none" xmlns="http://www.w3.org/2000/svg">
<path d="M18 8.5C18 6.9087 17.3679 5.38258 16.2426 4.25736C15.1174 3.13214 13.5913 2.5 12 2.5C10.4087 2.5 8.88258 3.13214 7.75736 4.25736C6.63214 5.38258 6 6.9087 6 8.5C6 15.5 3 17.5 3 17.5H21C21 17.5 18 15.5 18 8.5Z" stroke="black" stroke-width="2" stroke-linecap="round" stroke-linejoin="round"/>
<path d="M15 18.5C14.6951 19.1083 14.2575 19.6132 13.731 19.9642C13.2045 20.3153 12.6076 20.5 12 20.5C11.3924 20.5 10.7955 20.3153 10.269 19.9642C9.74247 19.6132 9.30487 19.1083 9 18.5" stroke="black" stroke-width="2" stroke-linecap="round" stroke-linejoin="round"/>
</svg>
