<svg width="32" height="32" viewBox="0 0 32 32" fill="none" xmlns="http://www.w3.org/2000/svg">
<path d="M15.9287 16.4186C19.6349 16.4174 22.6368 13.4118 22.6356 9.7069C22.6345 6.00077 19.6289 2.9988 15.9239 3C12.219 3.0012 9.21582 6.00675 9.21701 9.71168C9.2218 13.4154 12.225 16.4162 15.9287 16.4186ZM15.9287 6.93328C17.4638 6.93328 18.7083 8.17782 18.7083 9.71288C18.7083 11.2479 17.4638 12.4913 15.9287 12.4913C14.3937 12.4913 13.1491 11.2467 13.1491 9.71168C13.1515 8.17782 14.3949 6.93448 15.9287 6.93328ZM18.6414 21.8929C20.0222 21.5797 21.3397 21.0333 22.5388 20.2789C23.4522 19.6895 23.7152 18.4725 23.1258 17.5591C22.546 16.6601 21.3528 16.3887 20.4419 16.9494C17.679 18.6769 14.1713 18.6769 11.4084 16.9494C10.4915 16.3744 9.28038 16.6493 8.70294 17.5651C8.1231 18.4821 8.39569 19.6967 9.31385 20.2765C9.31505 20.2765 9.31624 20.2777 9.31624 20.2777C10.5142 21.0309 11.8316 21.5773 13.2113 21.8917L9.45971 25.6433C8.7125 26.4323 8.74717 27.678 9.53742 28.4253C10.2966 29.1426 11.4825 29.1426 12.2417 28.4253L15.9263 24.7383L19.6133 28.4253C20.3809 29.1916 21.623 29.1916 22.3906 28.4253C23.1569 27.6577 23.1569 26.4156 22.3906 25.648L18.6414 21.8929Z" fill="#EB722E"/>
</svg>
