<svg width="32" height="32" viewBox="0 0 32 32" fill="none" xmlns="http://www.w3.org/2000/svg">
<g clip-path="url(#clip0_2702_79038)">
<path d="M11.1 0H20.9167C29.8833 0 32 2.13333 32 11.1V20.9167C32 29.8833 29.8667 32 20.9 32H11.0833C2.11667 32 0 29.8667 0 20.9V11.0833C0 2.13333 2.13333 0 11.1 0Z" fill="#5181B8"/>
<mask id="mask0_2702_79038" style="mask-type:luminance" maskUnits="userSpaceOnUse" x="0" y="0" width="32" height="32">
<path d="M11.1 0H20.9167C29.8833 0 32 2.13333 32 11.1V20.9167C32 29.8833 29.8667 32 20.9 32H11.0833C2.11667 32 0 29.8667 0 20.9V11.0833C0 2.13333 2.13333 0 11.1 0Z" fill="white"/>
</mask>
<g mask="url(#mask0_2702_79038)">
<path d="M-0.835938 -0.833984H32.8307V32.8327H-0.835938V-0.833984Z" fill="#5181B8"/>
</g>
<path fill-rule="evenodd" clip-rule="evenodd" d="M26.2005 11.016C26.3505 10.516 26.2005 10.166 25.5005 10.166H23.1672C22.5672 10.166 22.3005 10.4827 22.1505 10.8327C22.1505 10.8327 20.9672 13.7327 19.2839 15.5993C18.7339 16.1493 18.5005 16.316 18.2005 16.316C18.0505 16.316 17.8339 16.1493 17.8339 15.6493V11.016C17.8339 10.416 17.6672 10.166 17.1672 10.166H13.5005C13.1339 10.166 12.9005 10.4493 12.9005 10.6993C12.9005 11.266 13.7339 11.3993 13.8339 12.966V16.3993C13.8339 17.1493 13.7005 17.2827 13.4005 17.2827C12.6172 17.2827 10.6839 14.3827 9.55052 11.0493C9.31719 10.4327 9.10052 10.166 8.50052 10.166H6.16719C5.50052 10.166 5.36719 10.4827 5.36719 10.8327C5.36719 11.4493 6.15052 14.516 9.05052 18.566C10.9839 21.3327 13.7005 22.8327 16.1672 22.8327C17.6505 22.8327 17.8339 22.4994 17.8339 21.9327V19.8327C17.8339 19.166 17.9672 19.0327 18.4505 19.0327C18.8005 19.0327 19.3839 19.1993 20.7672 20.5327C22.3505 22.116 22.6172 22.8327 23.5005 22.8327H25.8339C26.5005 22.8327 26.8339 22.4994 26.6339 21.8493C26.4172 21.1994 25.6672 20.2493 24.6672 19.116C24.1172 18.466 23.3005 17.7827 23.0672 17.4327C22.7172 16.9827 22.8172 16.7827 23.0672 16.3993C23.0672 16.3827 25.9172 12.3827 26.2005 11.016Z" fill="white"/>
</g>
<defs>
<clipPath id="clip0_2702_79038">
<rect width="32" height="32" fill="white"/>
</clipPath>
</defs>
</svg>
