<svg width="32" height="32" viewBox="0 0 32 32" fill="none" xmlns="http://www.w3.org/2000/svg">
<path d="M16.0042 4.36328C12.844 4.36328 12.4474 4.3771 11.2063 4.43358C9.9675 4.49031 9.12195 4.68643 8.3821 4.97419C7.61679 5.2714 6.96759 5.66898 6.32083 6.31601C5.67357 6.9628 5.27601 7.61201 4.97784 8.3771C4.68936 9.11722 4.493 9.96304 4.43725 11.2013C4.38173 12.4426 4.36719 12.8394 4.36719 15.9996C4.36719 19.1599 4.38125 19.5553 4.43749 20.7965C4.49446 22.0353 4.69057 22.8809 4.97808 23.6207C5.27552 24.3861 5.67309 25.0353 6.3201 25.6821C6.96662 26.3293 7.61582 26.7279 8.38064 27.0251C9.12098 27.3129 9.96678 27.509 11.2053 27.5657C12.4465 27.6222 12.8428 27.636 16.0027 27.636C19.1631 27.636 19.5585 27.6222 20.7997 27.5657C22.0384 27.509 22.8849 27.3129 23.6253 27.0251C24.3903 26.7279 25.0386 26.3293 25.6851 25.6821C26.3323 25.0353 26.7299 24.3861 27.0281 23.621C27.3141 22.8809 27.5105 22.035 27.5687 20.7967C27.6244 19.5555 27.639 19.1599 27.639 15.9996C27.639 12.8394 27.6244 12.4428 27.5687 11.2016C27.5105 9.9628 27.3141 9.11722 27.0281 8.37734C26.7299 7.61201 26.3323 6.9628 25.6851 6.31601C25.0378 5.66874 24.3906 5.27116 23.6245 4.97419C22.8827 4.68643 22.0367 4.49031 20.798 4.43358C19.5568 4.3771 19.1616 4.36328 16.0005 4.36328H16.0042ZM14.9603 6.46025C15.2701 6.45977 15.6158 6.46025 16.0042 6.46025C19.111 6.46025 19.4792 6.4714 20.7061 6.52716C21.8406 6.57904 22.4563 6.76861 22.8665 6.92789C23.4095 7.1388 23.7967 7.39092 24.2037 7.79819C24.6109 8.20546 24.8631 8.59334 25.0744 9.13637C25.2337 9.54607 25.4235 10.1618 25.4752 11.2964C25.5309 12.523 25.543 12.8915 25.543 15.997C25.543 19.1024 25.5309 19.4709 25.4752 20.6976C25.4233 21.8321 25.2337 22.4479 25.0744 22.8576C24.8635 23.4006 24.6109 23.7873 24.2037 24.1943C23.7964 24.6016 23.4098 24.8537 22.8665 25.0646C22.4568 25.2246 21.8406 25.4137 20.7061 25.4656C19.4795 25.5213 19.111 25.5335 16.0042 25.5335C12.8971 25.5335 12.5289 25.5213 11.3023 25.4656C10.1677 25.4132 9.552 25.2236 9.14159 25.0644C8.59857 24.8535 8.21071 24.6013 7.80345 24.1941C7.39619 23.7868 7.14407 23.3999 6.93269 22.8566C6.77342 22.4469 6.58361 21.8312 6.53197 20.6966C6.47621 19.4699 6.46506 19.1015 6.46506 15.9941C6.46506 12.8867 6.47621 12.5201 6.53197 11.2935C6.58385 10.1589 6.77342 9.54316 6.93269 9.13298C7.14359 8.58995 7.39619 8.20207 7.80345 7.7948C8.21071 7.38752 8.59857 7.1354 9.14159 6.92401C9.55176 6.76401 10.1677 6.57492 11.3023 6.5228C12.3757 6.47431 12.7917 6.45977 14.9603 6.45734V6.46025ZM22.2154 8.39237C21.4445 8.39237 20.8191 9.0171 20.8191 9.78825C20.8191 10.5592 21.4445 11.1846 22.2154 11.1846C22.9863 11.1846 23.6117 10.5592 23.6117 9.78825C23.6117 9.01734 22.9863 8.39189 22.2154 8.39189V8.39237ZM16.0042 10.0239C12.7041 10.0239 10.0286 12.6995 10.0286 15.9996C10.0286 19.2998 12.7041 21.9742 16.0042 21.9742C19.3042 21.9742 21.9788 19.2998 21.9788 15.9996C21.9788 12.6995 19.3039 10.0239 16.0039 10.0239H16.0042ZM16.0042 12.1209C18.1462 12.1209 19.8828 13.8573 19.8828 15.9996C19.8828 18.1417 18.1462 19.8784 16.0042 19.8784C13.8619 19.8784 12.1255 18.1417 12.1255 15.9996C12.1255 13.8573 13.8619 12.1209 16.0042 12.1209Z" fill="url(#paint0_radial_2702_79023)"/>
<path d="M16.0042 4.36328C12.844 4.36328 12.4474 4.3771 11.2063 4.43358C9.9675 4.49031 9.12195 4.68643 8.3821 4.97419C7.61679 5.2714 6.96759 5.66898 6.32083 6.31601C5.67357 6.9628 5.27601 7.61201 4.97784 8.3771C4.68936 9.11722 4.493 9.96304 4.43725 11.2013C4.38173 12.4426 4.36719 12.8394 4.36719 15.9996C4.36719 19.1599 4.38125 19.5553 4.43749 20.7965C4.49446 22.0353 4.69057 22.8809 4.97808 23.6207C5.27552 24.3861 5.67309 25.0353 6.3201 25.6821C6.96662 26.3293 7.61582 26.7279 8.38064 27.0251C9.12098 27.3129 9.96678 27.509 11.2053 27.5657C12.4465 27.6222 12.8428 27.636 16.0027 27.636C19.1631 27.636 19.5585 27.6222 20.7997 27.5657C22.0384 27.509 22.8849 27.3129 23.6253 27.0251C24.3903 26.7279 25.0386 26.3293 25.6851 25.6821C26.3323 25.0353 26.7299 24.3861 27.0281 23.621C27.3141 22.8809 27.5105 22.035 27.5687 20.7967C27.6244 19.5555 27.639 19.1599 27.639 15.9996C27.639 12.8394 27.6244 12.4428 27.5687 11.2016C27.5105 9.9628 27.3141 9.11722 27.0281 8.37734C26.7299 7.61201 26.3323 6.9628 25.6851 6.31601C25.0378 5.66874 24.3906 5.27116 23.6245 4.97419C22.8827 4.68643 22.0367 4.49031 20.798 4.43358C19.5568 4.3771 19.1616 4.36328 16.0005 4.36328H16.0042ZM14.9603 6.46025C15.2701 6.45977 15.6158 6.46025 16.0042 6.46025C19.111 6.46025 19.4792 6.4714 20.7061 6.52716C21.8406 6.57904 22.4563 6.76861 22.8665 6.92789C23.4095 7.1388 23.7967 7.39092 24.2037 7.79819C24.6109 8.20546 24.8631 8.59334 25.0744 9.13637C25.2337 9.54607 25.4235 10.1618 25.4752 11.2964C25.5309 12.523 25.543 12.8915 25.543 15.997C25.543 19.1024 25.5309 19.4709 25.4752 20.6976C25.4233 21.8321 25.2337 22.4479 25.0744 22.8576C24.8635 23.4006 24.6109 23.7873 24.2037 24.1943C23.7964 24.6016 23.4098 24.8537 22.8665 25.0646C22.4568 25.2246 21.8406 25.4137 20.7061 25.4656C19.4795 25.5213 19.111 25.5335 16.0042 25.5335C12.8971 25.5335 12.5289 25.5213 11.3023 25.4656C10.1677 25.4132 9.552 25.2236 9.14159 25.0644C8.59857 24.8535 8.21071 24.6013 7.80345 24.1941C7.39619 23.7868 7.14407 23.3999 6.93269 22.8566C6.77342 22.4469 6.58361 21.8312 6.53197 20.6966C6.47621 19.4699 6.46506 19.1015 6.46506 15.9941C6.46506 12.8867 6.47621 12.5201 6.53197 11.2935C6.58385 10.1589 6.77342 9.54316 6.93269 9.13298C7.14359 8.58995 7.39619 8.20207 7.80345 7.7948C8.21071 7.38752 8.59857 7.1354 9.14159 6.92401C9.55176 6.76401 10.1677 6.57492 11.3023 6.5228C12.3757 6.47431 12.7917 6.45977 14.9603 6.45734V6.46025ZM22.2154 8.39237C21.4445 8.39237 20.8191 9.0171 20.8191 9.78825C20.8191 10.5592 21.4445 11.1846 22.2154 11.1846C22.9863 11.1846 23.6117 10.5592 23.6117 9.78825C23.6117 9.01734 22.9863 8.39189 22.2154 8.39189V8.39237ZM16.0042 10.0239C12.7041 10.0239 10.0286 12.6995 10.0286 15.9996C10.0286 19.2998 12.7041 21.9742 16.0042 21.9742C19.3042 21.9742 21.9788 19.2998 21.9788 15.9996C21.9788 12.6995 19.3039 10.0239 16.0039 10.0239H16.0042ZM16.0042 12.1209C18.1462 12.1209 19.8828 13.8573 19.8828 15.9996C19.8828 18.1417 18.1462 19.8784 16.0042 19.8784C13.8619 19.8784 12.1255 18.1417 12.1255 15.9996C12.1255 13.8573 13.8619 12.1209 16.0042 12.1209Z" fill="url(#paint1_radial_2702_79023)"/>
<defs>
<radialGradient id="paint0_radial_2702_79023" cx="0" cy="0" r="1" gradientUnits="userSpaceOnUse" gradientTransform="translate(10.5488 29.4285) rotate(-90) scale(23.065 21.4514)">
<stop stop-color="#FFDD55"/>
<stop offset="0.1" stop-color="#FFDD55"/>
<stop offset="0.5" stop-color="#FF543E"/>
<stop offset="1" stop-color="#C837AB"/>
</radialGradient>
<radialGradient id="paint1_radial_2702_79023" cx="0" cy="0" r="1" gradientUnits="userSpaceOnUse" gradientTransform="translate(0.469041 6.03981) rotate(78.6811) scale(10.3101 42.4972)">
<stop stop-color="#3771C8"/>
<stop offset="0.128" stop-color="#3771C8"/>
<stop offset="1" stop-color="#6600FF" stop-opacity="0"/>
</radialGradient>
</defs>
</svg>
