<svg width="32" height="32" viewBox="0 0 32 32" fill="none" xmlns="http://www.w3.org/2000/svg">
<path fill-rule="evenodd" clip-rule="evenodd" d="M26.3615 10.7842C26.3706 11.0174 26.3736 11.2505 26.3736 11.4836C26.3736 18.5532 21.4004 26.7147 12.3063 26.7147C9.51278 26.7147 6.91518 25.8243 4.72656 24.3087C5.11344 24.3511 5.50635 24.3829 5.90528 24.3829C8.22152 24.3829 10.3549 23.5242 12.0471 22.0827C9.88358 22.0509 8.05673 20.4929 7.42667 18.3731C7.72914 18.4367 8.04063 18.4685 8.35917 18.4685C8.80835 18.4685 9.24447 18.405 9.66249 18.2778C7.39851 17.7903 5.69326 15.6281 5.69326 13.0313C5.69326 12.9995 5.69326 12.9889 5.69326 12.9677C6.36049 13.3598 7.12419 13.6035 7.93512 13.6353C6.60668 12.6708 5.73343 11.028 5.73343 9.17311C5.73343 8.19799 5.97661 7.27583 6.40469 6.48089C8.84251 9.72422 12.4872 11.8547 16.5962 12.0773C16.5117 11.6851 16.4685 11.2718 16.4685 10.8585C16.4685 7.90131 18.6822 5.50586 21.4135 5.50586C22.8354 5.50586 24.1196 6.1525 25.021 7.19121C26.1495 6.95803 27.2066 6.5129 28.1633 5.89815C27.7925 7.14884 27.0096 8.19794 25.9867 8.85508C26.9875 8.72789 27.9422 8.44194 28.8275 8.01797C28.1633 9.08848 27.3272 10.0317 26.3615 10.7842Z" fill="black"/>
</svg>
