<svg width="32" height="32" viewBox="0 0 32 32" fill="none" xmlns="http://www.w3.org/2000/svg">
<path fill-rule="evenodd" clip-rule="evenodd" d="M6.27295 4.66602C5.38439 4.66602 4.66406 5.38634 4.66406 6.2749V25.7237C4.66406 26.6123 5.38439 27.3326 6.27295 27.3326H25.7218C26.6104 27.3326 27.3307 26.6123 27.3307 25.7237V6.2749C27.3307 5.38634 26.6104 4.66602 25.7218 4.66602H6.27295ZM9.75169 11.7052C10.8377 11.7052 11.718 10.8248 11.718 9.73883C11.718 8.65286 10.8377 7.7725 9.75169 7.7725C8.66572 7.7725 7.78536 8.65286 7.78536 9.73883C7.78536 10.8248 8.66572 11.7052 9.75169 11.7052ZM13.5188 13.1583H16.7777V14.6512C16.7777 14.6512 17.662 12.8826 20.0681 12.8826C22.2145 12.8826 23.9926 13.9399 23.9926 17.1628V23.959H20.6155V17.9863C20.6155 16.0851 19.6005 15.876 18.827 15.876C17.2218 15.876 16.947 17.2606 16.947 18.2343V23.959H13.5188V13.1583ZM11.4658 13.1583H8.03759V23.959H11.4658V13.1583Z" fill="black"/>
</svg>
