<svg width="123" height="30" viewBox="0 0 123 30" fill="none" xmlns="http://www.w3.org/2000/svg">
<g clip-path="url(#clip0_2702_84049)">
<path d="M0 2.63831V2.38281H16.1498V5.34073H15.8934V5.22281C15.8934 5.22281 15.8568 5.16385 15.8568 5.12454C15.6279 4.25977 15.2983 3.72911 14.8863 3.53257C14.4744 3.33603 13.8335 3.23776 12.9821 3.23776H4.75154V14.3324H12.4144C13.0736 14.3324 13.5222 14.2833 13.7603 14.1752C13.9983 14.0671 14.1448 13.8411 14.1722 13.4873H14.4286V15.8949H14.1722C14.1722 15.3151 13.7877 15.0203 13.0278 15.0203H4.75154V25.0635C4.75154 26.0069 4.89803 26.6162 5.19099 26.8913C5.48396 27.1665 5.98749 27.304 6.71075 27.304V27.5595H0V27.304C0.787346 27.304 1.28173 27.1566 1.4923 26.8618C1.70287 26.567 1.80357 26.1543 1.80357 25.6138V4.90835C1.80357 4.06323 1.68456 3.47361 1.43736 3.13949C1.19933 2.80537 0.72326 2.63831 0 2.63831Z" fill="black" stroke="black" stroke-width="0.338976" stroke-miterlimit="10" stroke-linecap="round"/>
<path d="M21.3984 2.63831V2.38281H28.6402C30.4804 2.38281 31.8079 2.42212 32.6227 2.50074C33.4467 2.57935 34.2798 2.84468 35.1404 3.29672C36.001 3.74876 36.651 4.35804 37.0904 5.12454C37.5299 5.89105 37.7496 6.84426 37.7496 7.95471C37.7496 9.23222 37.3559 10.4508 36.5777 11.6104C35.7996 12.7699 34.7009 13.7428 33.2819 14.5486L35.0855 17.2805C35.4791 17.9684 36.5228 19.4621 38.2165 21.7715C39.9102 24.0808 41.2194 25.4959 42.1441 25.9971C43.0688 26.4982 43.966 26.7537 44.8266 26.7537C45.6872 26.7537 46.6668 26.4294 47.7745 25.7809L47.8752 26.1248C46.4928 27.2451 44.6892 27.8052 42.4737 27.8052C40.9997 27.8052 39.7271 27.3728 38.6651 26.5081C37.6031 25.6433 35.7538 23.275 33.1262 19.4032C33.0988 19.3835 33.0896 19.354 33.0896 19.3344L30.5262 15.433L28.2557 15.5018H26.1866V25.1323C26.1866 25.9086 26.2873 26.4589 26.4979 26.793C26.6993 27.1272 27.2028 27.2942 27.9902 27.2942V27.5497H21.4076V27.2942C22.2316 27.2647 22.7351 27.0879 22.9365 26.7832C23.1379 26.4786 23.2386 25.8497 23.2386 24.9063V4.90835C23.2386 4.25977 23.1562 3.71928 22.9823 3.29672C22.8083 2.87416 22.2865 2.64814 21.4076 2.63831H21.3984ZM26.1774 3.05105V14.8631H28.8508C30.9565 14.8631 32.522 14.3717 33.5382 13.389C34.5544 12.4063 35.0671 11.119 35.0671 9.52703C35.0671 7.93506 34.5636 6.51015 33.5657 5.12454C32.5678 3.73894 30.8008 3.05105 28.2831 3.05105H26.1866H26.1774Z" fill="black" stroke="black" stroke-width="0.338976" stroke-miterlimit="10" stroke-linecap="round"/>
<path d="M90.8904 27.3142V27.5697H80.6C78.6224 27.5697 76.8921 27.3633 75.409 26.9408C73.9258 26.5182 72.4152 25.7222 70.868 24.543C69.3299 23.3637 68.0757 21.8995 67.1235 20.1405C66.1714 18.3815 65.6953 16.5929 65.6953 14.7553C65.6953 12.7506 66.2904 10.7459 67.4897 8.75102C68.6891 6.75614 70.3828 5.13469 72.5892 3.88666C74.7956 2.63863 77.2949 2.01953 80.0873 2.01953C82.5958 2.01953 85.2416 2.56984 88.0431 3.66064L89.096 6.56943H88.8396C87.9516 5.44915 86.7339 4.52541 85.1959 3.78839C83.6578 3.05136 81.9366 2.68777 80.0415 2.68777C76.7548 2.68777 74.054 3.90631 71.9575 6.35323C69.8609 8.80015 68.8081 11.8367 68.8081 15.4628C68.8081 16.9664 68.982 18.3127 69.3299 19.4919C69.6778 20.6711 70.3278 21.8307 71.28 22.9805C72.2321 24.1302 73.2575 24.9655 74.347 25.5159C75.4364 26.0563 76.6632 26.4298 78.009 26.646C79.364 26.8523 80.4352 26.9506 81.2317 26.9309L82.605 26.9015C84.1522 26.8425 85.1226 26.7049 85.5071 26.4691C85.8917 26.243 86.0839 25.6633 86.0839 24.7297V20.9168C86.0839 20.1798 85.9283 19.6786 85.617 19.4231C85.3057 19.1676 84.8571 19.0595 84.2804 19.089V18.8335H90.8812V19.089C90.1397 19.089 89.6453 19.2266 89.3981 19.5116C89.1509 19.7965 89.0227 20.3469 89.0227 21.1527V25.1129C89.0227 25.9089 89.1326 26.4789 89.3432 26.8327C89.5537 27.1864 89.9474 27.3535 90.515 27.3535H90.8812L90.8904 27.3142Z" fill="black" stroke="black" stroke-width="0.338976" stroke-linecap="round" stroke-linejoin="round"/>
<path d="M94.6389 20.2487H95.2614C95.2889 22.676 95.8657 24.3662 96.9918 25.3293C98.1179 26.2923 99.8848 26.764 102.274 26.764C104.444 26.764 106.092 26.253 107.218 25.2408C108.344 24.2286 108.903 23.0101 108.903 21.5852C108.903 20.7204 108.71 19.9834 108.317 19.3741C107.923 18.7648 107.374 18.2243 106.669 17.7625C105.964 17.3006 104.627 16.7405 102.668 16.0722C100.718 15.3942 99.3447 14.8046 98.5573 14.2936C97.7608 13.7826 97.1016 13.0259 96.5706 12.0039C96.0396 10.9819 95.7741 9.95003 95.7741 8.88872C95.7741 6.94297 96.4516 5.31169 97.8066 3.98505C99.1616 2.66823 100.947 2 103.153 2C104.005 2 104.929 2.09827 105.927 2.29481C106.916 2.49135 107.474 2.6191 107.593 2.66823C107.639 2.68789 107.685 2.70754 107.731 2.70754L108.939 5.85218L108.729 5.89149C108.729 5.89149 108.408 5.54754 107.767 4.87931C107.127 4.21107 106.394 3.7099 105.57 3.3463C104.746 2.9827 103.812 2.80581 102.769 2.80581C101.029 2.80581 99.6376 3.29716 98.6214 4.28969C97.596 5.27239 97.0925 6.46145 97.0925 7.85688C97.0925 8.78062 97.3305 9.58643 97.8157 10.2743C98.2918 10.9622 99.2989 11.6108 100.819 12.2004C103.437 13.075 105.231 13.7236 106.193 14.1658C107.154 14.608 108.088 15.345 108.985 16.3965C109.882 17.448 110.331 18.7845 110.331 20.4256C110.331 21.1135 110.248 21.7621 110.093 22.3812C109.928 23.0003 109.672 23.5997 109.315 24.1795C108.958 24.7593 108.527 25.2801 108.024 25.7518C107.52 26.2235 107.008 26.5871 106.495 26.823C105.973 27.0686 105.158 27.2554 104.032 27.3733C102.906 27.4912 102.174 27.56 101.817 27.56C97.239 27.5895 94.4009 25.3686 94.6389 20.2389V20.2487Z" fill="black" stroke="black" stroke-width="0.338976" stroke-linecap="round" stroke-linejoin="round"/>
<path d="M122.677 2.38281V2.63831C122.339 2.59901 121.972 2.65797 121.56 2.79555C121.148 2.93312 120.91 3.12966 120.837 3.39499C120.764 3.66032 120.727 4.27942 120.727 5.26212V24.582C120.727 25.6335 120.773 26.2722 120.855 26.5081C120.938 26.7439 121.112 26.9306 121.359 27.0879C121.606 27.2451 122.046 27.3139 122.686 27.3139V27.5694H115.875V27.3139C116.726 27.3139 117.257 27.1566 117.468 26.8324C117.679 26.5081 117.779 25.771 117.779 24.6213V5.47831C117.779 4.27942 117.66 3.50309 117.431 3.12966C117.203 2.75624 116.681 2.59901 115.875 2.64814V2.39264H122.686L122.677 2.38281Z" fill="black" stroke="black" stroke-width="0.338976" stroke-miterlimit="10" stroke-linecap="round"/>
<path d="M63.6922 25.8697C63.2253 24.9066 62.9964 24.3662 62.9964 24.2482L53.887 2.00977H53.4292L44.4297 24.4251C44.7043 24.6217 45.0339 24.7396 45.391 24.7789L48.9707 15.9739H56.4596L60.1125 24.9165C60.1125 24.9165 60.14 24.9754 60.1675 25.0835C60.2041 25.1916 60.2407 25.2604 60.2865 25.3095C60.552 25.9385 60.6893 26.3905 60.6893 26.6755C60.6893 27.0981 60.4146 27.3044 59.8745 27.3044V27.5599H65.8345V27.3044C64.8824 27.3044 64.1683 26.8229 63.7014 25.8599L63.6922 25.8697ZM49.2179 15.2762L52.6694 6.68741L56.1209 15.2762H49.2179Z" fill="black" stroke="black" stroke-width="0.338976" stroke-linecap="round" stroke-linejoin="round"/>
</g>
<defs>
<clipPath id="clip0_2702_84049">
<rect width="123" height="30" fill="white"/>
</clipPath>
</defs>
</svg>
